# xmcd
#
# Track frame offsets: 
#        225
#        20725
#        39280
#        60447
#        84706
#        109626
#        132571
#        159277
#        187793
#        211533
#
# Disc length: 3141 seconds
#
# Revision: 0
# Processed by: cddbd v1.5.2PL0 Copyright (c) Steve Scherf et al.
# Submitted via: ExactAudioCopy v1.0b1
#
DISCID=750c420a
DTITLE=Lil' Fi - Live - Harwood Sessions
DYEAR=2010
DGENRE=Blues
TTITLE0=Brand New Dance
TTITLE1=Celebrate The Curves
TTITLE2=Tweedly Dee
TTITLE3=Two Wings
TTITLE4=Pink Cadillac
TTITLE5=Summerstorms
TTITLE6=Bright Lights
TTITLE7=Wang Dang Doodle
TTITLE8=Karma Sutra Man
TTITLE9=Knows How To Love
EXTD=
EXTT0=
EXTT1=
EXTT2=
EXTT3=
EXTT4=
EXTT5=
EXTT6=
EXTT7=
EXTT8=
EXTT9=
PLAYORDER=
